<?xml version="1.0" encoding="utf-8"?>
<!-- Generator: Adobe Illustrator 27.3.1, SVG Export Plug-In . SVG Version: 6.00 Build 0)  -->
<svg version="1.1" id="Ebene_1" xmlns="http://www.w3.org/2000/svg" xmlns:xlink="http://www.w3.org/1999/xlink" x="0px" y="0px"
	 viewBox="0 0 1474.6 1900.1" style="enable-background:new 0 0 1474.6 1900.1;" xml:space="preserve">
<style type="text/css">
	.st0{fill:#88001A;}
</style>
<path class="st0" d="M1463.7,720.3c-1.1-15.1-3.8-26.4-17.2-35.4c-2.9-2-7.2-3.8-10.5-4.9c-4-1.3-9.1-2.2-13.5-2.3
	c-14.4-0.2-29.8,5.4-41.8,13.2c-4.1,2.7-7.8,5.4-11,9.2c-1.9,2.2-4.6,6.8-7.1,7.6h-14.8l-7.5-0.9h-6.7l-26.1-2.2l-103.1-9.6
	l-41.8-4.5c-4.3-0.5-17-1.7-20.1-3.2c-3-1.5-12.8-10-15.7-12.7c-8.2-7.5-17.4-15.6-23.9-24.7c5.2-2.8,17.6-15.5,22.4-20.1l26.1-26.1
	l12.8-14.2c13.8-15,32.1-37.6,43.2-54.6l13.2-21.7l6-11.2c13.6-21.4,27.6-42,38.5-64.9c11.4-24.3,19-50.1,24.8-76.1
	c1.8-8,7.1-32.7,7.2-39.6l-0.7-10.5L1294,284c-4.1-35.1-13.4-70.8-31-101.6c-11.6-20.2-31.6-42.8-49-58.4
	c-24-21.4-47-35.1-78.4-42.2c-10.1-2.3-20.2-3.8-30.6-4l-29.2-2.3h-7.5c-13.3,0-33.7,6-46.3,10.8L984.1,101
	c-2.6,1-12.9,5.8-14.8,5.3c-2.2-0.5-4-4.4-5.1-6.2l-9.5-15.7c-9.9-14.6-22.7-26.6-37.7-35.7c-24.7-14.9-53-22-81.4-25.7l-32.2-2.8
	l-8.9-0.7h-38.9l-11.2-0.7h-10.5L722.6,18h-96.4l-12.7,0.7h-23.1L580,19.4h-15.7l-11.3,1h-10.5l-12.7,0.7l-35.8,2.2
	c-26.1,1.8-54.2,4.1-79.9,9.3c-26.1,5.2-57.7,12.3-79.9,27.5c-11.4,7.8-18.5,14.9-22.7,28.2l-1.5,4.5c-0.5,3.5,2.4,8.9,4,11.9
	l14.2,23.1l10.2,14.9l8.7,16.4l23.9,50c9.1,20.5,21.6,52.6,28.2,74l5.9,21l4,11.9l6.2,24.7c8.8,40.3,12.1,90.2,4.1,130.7
	c-2.6,13.1-5.6,21.3-9.9,33.6l-35.1-3.8l-33.6-2.2l-11.2-0.7h-13.5l-11.2-0.7h-37.3l-11.9,0.7h-11.2l-14.9,0.7l-8.2,0.7
	c-16.2,1.1-32.5,2.3-48.6,5c-17.3,2.9-33.1,7.3-49.3,14.2c-12.6,5.3-21.9,9.8-30.1,21.3c-5.8,8.1-6.2,16.6-7.4,26.1l-3,29.9
	l-5.2,67.2l-2.4,34.3L75,708.4l-0.7,19.4l-0.7,10.5v11.2l-0.7,7.5v23.1c0,6.3,0.2,6.5,3.4,11.9c4.5,7.6,7.9,9.6,16.8,9.8h8.9
	c5.8-0.1,11.1-2.1,16.4-4.1c11.4-4.6,23.1-12.1,32.1-20.6c3.3-3.2,7.7-8.7,10.3-12.6c1.6-2.3,3-5.8,5.6-7c2.8-1.2,11.5-1.9,14.8-2.1
	c4.6-0.3,13.7-1.6,17.9-0.7l-14.6,20.1l-26.7,36.6c-27.6,39.4-53.6,80.1-75,123.2c-28.4,57.2-41.6,110.8-52.1,173.2l-7.3,54.6
	l-2.9,34.3l-0.7,7.5l-0.7,22.4l-0.7,11.9v24.7l0.7,11.9v10.5l0.7,8.2l3.5,40.4c4.8,36.9,12.1,72.4,24.6,107.6
	c14.1,39.7,34.2,77.6,56.1,113.5c51,84.1,119.7,163.5,201.1,219.6c15.6,10.7,31.8,21,48.6,29.9l11.9,5.5l35.1,22.9
	c14.5,8.9,30.2,16.2,46.3,21.9c69.3,24.7,148.2,26.8,221.1,26.7l11.2-0.7h15.7l8.2-0.7h11.2l13.5,0.7l8.9-0.7h14.9l14.9-0.7
	l13.5-0.7l8.2-0.7l21.7-1.5c38.5-2.6,76.9-7,115-12.6c26.1-3.8,52.1-8.5,77.7-14.8c16.9-4.3,34.2-8.9,50-16.2
	c57.7-26.5,108.5-65.5,153.8-109.7l6.7-7.4l14.8-14.9l28.7-32.9c11.8-14.4,22.7-29.5,33.3-44.8l9.3-14.2l23-32.9
	c34.6-53.8,62.6-115,78.8-177c6.7-25.6,11.7-52,13.6-78.4l0.7-7.5l0.7-26.9l-0.7-16.4l-2.3-25.4l-0.7-22.4l-0.7-11.2v-9.8l-0.7-7.5
	l-1.5-21.7c-2.2-31.3-6.3-62.5-12.4-93.4c-7-34.8-18.8-76.3-33.9-108.3c10.6-2.2,19.2-5.3,29.2-9.1c10.8-4.1,19.7-7.8,27.4-17
	c5.7-7,8.6-16.9,11-25.4l9.2-38.8l16.2-81.4c3.3-18.5,5.9-36.6,7.3-55.3l0.7-7.5L1463.7,720.3z M931.8,412.6l0.7-11.2l2.9-41.1
	c3.1-31.6,7.1-63.6,13.3-94.8l7.2-33.6c2.1-8.1,3.6-14.9,9.1-21.7c19.1-23.1,55.8-38.9,84.9-44.4l17.9-2.6l11.2-0.6l16.4,0.5
	c4.5,0,18.5,1.6,22.4,3c6.5,2.4,16.7,8.8,22.4,13c21.5,15.4,38,36.7,49.5,60.3c9.3,19.1,18.5,47.4,18.5,68.7v21.7l-1.3,15.7
	c-3.3,28.1-13.1,58.8-26.5,83.6c-10.6,19.5-21.5,35.4-35.8,52.3l-10.1,11.2l-8.7,11.2l-18.3,21l-25.5,27.6l-20.7,21.7l-11,11.9
	c-2.4,2.7-4.8,5.8-8.5,6.4c-5,0.8-11.2-3.3-14.9-6.2c-8.7-6.5-22.2-20.9-29.5-29.4c-14.2-16.8-26.6-34.3-38.1-53
	c-9.9-16-21.4-38.4-25.3-56.7C931.5,436.6,931.7,423.3,931.8,412.6z"/>
</svg>
