<svg xmlns="http://www.w3.org/2000/svg" xmlns:xlink="http://www.w3.org/1999/xlink" width="434.2" height="167" viewBox="0 0 434.2 167">
  <defs>
    <filter id="Ellipse_3" x="0" y="0" width="130" height="167" filterUnits="userSpaceOnUse">
      <feOffset dy="2" input="SourceAlpha"/>
      <feGaussianBlur stdDeviation="1" result="blur"/>
      <feFlood flood-opacity="0.2"/>
      <feComposite operator="in" in2="blur"/>
      <feComposite in="SourceGraphic"/>
    </filter>
  </defs>
  <g id="Gruppe_23" data-name="Gruppe 23" transform="translate(-137 20)">
    <g id="Header_Logo" transform="translate(-7 16)">
      <text id="Gasthof_Auenkrug" data-name="Gasthof Auenkrug" transform="translate(316.2 36)" fill="#fff" font-size="30" font-family="Prata-Regular, Prata"><tspan x="0" y="0">Gasthof Auenkrug</tspan></text>
    </g>
    <g id="Gruppe_22" data-name="Gruppe 22">
      <g transform="matrix(1, 0, 0, 1, 137, -20)" filter="url(#Ellipse_3)">
        <ellipse id="Ellipse_3-2" data-name="Ellipse 3" cx="62" cy="80.5" rx="62" ry="80.5" transform="translate(3 1)" fill="#fef6d3"/>
      </g>
      <g id="_2016-05-23_logo_auenkrug_white" data-name="2016-05-23_logo_auenkrug_white" transform="translate(160.743 10.323)">
        <path id="Auswahl__x23_1" d="M66.1,63.465a19.537,19.537,0,0,0-.237-7.459L65.507,54.6l-.231-.681-.337-1.2c-.379-1.22-1.1-3.043-1.61-4.221l-1.362-2.854-.5-.935-.58-.853-.811-1.32a1.27,1.27,0,0,1-.231-.681l.083-.255a2.887,2.887,0,0,1,1.3-1.61,12.959,12.959,0,0,1,4.558-1.569,35.717,35.717,0,0,1,4.558-.533l2.048-.124.722-.041h.6l.639-.041h.894l.6-.041h1.326l.722-.041h5.5l.639.041h.6l.639.041h2.214l.509.041,1.835.16a11.907,11.907,0,0,1,4.647,1.468,6.792,6.792,0,0,1,2.149,2.037l.545.894c.059.107.166.326.29.355a3.957,3.957,0,0,0,.847-.3l2.173-.841a9.164,9.164,0,0,1,2.64-.616h.426l1.664.13a7.894,7.894,0,0,1,1.746.231,9.572,9.572,0,0,1,4.476,2.409,14.779,14.779,0,0,1,2.794,3.333,15.354,15.354,0,0,1,1.77,5.8l.124,1.533.041.6a21.563,21.563,0,0,1-.408,2.261,20.61,20.61,0,0,1-1.415,4.345,34.265,34.265,0,0,1-2.2,3.706l-.343.639-.752,1.237a28.306,28.306,0,0,1-2.463,3.114l-.728.811-1.492,1.492a9.91,9.91,0,0,1-1.279,1.148,9.57,9.57,0,0,0,1.362,1.409,8.1,8.1,0,0,0,.894.722,6.657,6.657,0,0,0,1.148.184l2.386.255,5.885.551,1.492.124h.385l.426.053h.847c.142-.047.3-.314.4-.432a2.827,2.827,0,0,1,.628-.527,4.474,4.474,0,0,1,2.386-.752,2.872,2.872,0,0,1,.77.13,2.749,2.749,0,0,1,.6.278,2.271,2.271,0,0,1,.983,2.019l.041.894-.041.426a28.409,28.409,0,0,1-.414,3.155l-.924,4.647-.527,2.214a4.02,4.02,0,0,1-.628,1.45,3.334,3.334,0,0,1-1.563.971,10.048,10.048,0,0,1-1.664.521,28.494,28.494,0,0,1,1.936,6.181,41.558,41.558,0,0,1,.71,5.328l.083,1.237.041.426v.556l.041.639.041,1.279.13,1.45.041.935-.041,1.533-.041.426a24.421,24.421,0,0,1-.776,4.476,35.727,35.727,0,0,1-4.5,10.1l-1.314,1.877-.533.811c-.6.876-1.225,1.735-1.9,2.557l-1.64,1.877-.847.852-.385.42a31.683,31.683,0,0,1-8.78,6.258,16.718,16.718,0,0,1-2.854.924,45.042,45.042,0,0,1-4.434.847c-2.179.32-4.369.568-6.565.716l-1.237.083-.468.041-.77.041-.852.041h-.853l-.509.041-.77-.041h-.639l-.468.041h-.894l-.639.041c-4.156.006-8.667-.112-12.616-1.521a13.988,13.988,0,0,1-2.64-1.249l-2-1.308-.681-.314a28.273,28.273,0,0,1-2.771-1.7A41.18,41.18,0,0,1,48.09,125.324a36.4,36.4,0,0,1-3.2-6.477,29.121,29.121,0,0,1-1.4-6.139l-.2-2.3-.041-.468v-.6l-.041-.681V107.25l.041-.681.041-1.279.041-.426.166-1.96.414-3.114A33.419,33.419,0,0,1,46.876,89.9a54.625,54.625,0,0,1,4.28-7.033l1.521-2.09.835-1.148a5,5,0,0,0-1.024.041,3.894,3.894,0,0,0-.847.118c-.148.065-.231.26-.32.4a4.3,4.3,0,0,1-.586.716,6.287,6.287,0,0,1-1.829,1.178,2.48,2.48,0,0,1-.935.237h-.509a.927.927,0,0,1-.959-.556.911.911,0,0,1-.2-.681v-1.32l.041-.426V78.7l.041-.6.041-1.107.041-.6.124-1.96.3-3.836.172-1.7a2.982,2.982,0,0,1,.42-1.492A3.517,3.517,0,0,1,49.2,66.188a11.947,11.947,0,0,1,2.812-.811c.918-.154,1.847-.219,2.771-.284l.468-.041.852-.041h.639l.681-.041h2.131l.639.041h.77l.639.041,1.918.124,2,.219A12.43,12.43,0,0,0,66.1,63.465ZM83.563,39.08l-.681-.041H82.2L81.521,39H79.987l-.722-.041H76.536L75.808,39a69.144,69.144,0,0,0-8.057.462,22.63,22.63,0,0,0-4.262.888,4.765,4.765,0,0,0-1.812,1.042,1.467,1.467,0,0,0-.225,1.32l.515.722L62.6,44.5a38.144,38.144,0,0,1,2.042,4.3l.48,1.279.249.722.456.894.5,1.148a19.133,19.133,0,0,1,1.148,4.476l.118,1.2.041.426v.468l.041.509v.213l-.041.556a17.855,17.855,0,0,1-.444,3.582l-.225.935c-.03.1-.107.308-.047.4s.243.107.337.124l.894.225L71.6,66.9c2.96.888,5.914,1.817,8.821,2.853l3.451,1.208,1.533.509-.2-.853A77.009,77.009,0,0,1,84,62.3c-.154-1.616-.29-3.232-.29-4.86l-.041-.639V56.55l.041-.639V51.222l.041-.639.041-1.279.041-.853.041-.426L84,46.149l.438-5.074.13-1.237.077-.722Zm19.525,6.784-1.024.148a8.778,8.778,0,0,0-4.843,2.534,2.871,2.871,0,0,0-.521,1.237L96.291,51.7c-.355,1.782-.58,3.605-.758,5.411l-.166,2.344-.041.639a9.823,9.823,0,0,0,.112,1.96,11.593,11.593,0,0,0,1.445,3.238,26.076,26.076,0,0,0,2.173,3.025,13.219,13.219,0,0,0,1.681,1.675,1.374,1.374,0,0,0,.852.355.882.882,0,0,0,.485-.367l.628-.681,1.184-1.237,1.456-1.575,1.042-1.2.5-.639.574-.639a16.237,16.237,0,0,0,2.042-2.984,13.875,13.875,0,0,0,1.51-4.772l.077-.894V54.129a10.115,10.115,0,0,0-1.054-3.919,9.063,9.063,0,0,0-2.824-3.44,6.9,6.9,0,0,0-1.279-.74,6.931,6.931,0,0,0-1.279-.172l-.935-.03ZM48.445,78.911a17.633,17.633,0,0,1,3.623-.444l.6-.041h1.409l.509.041,2.64.255a77.874,77.874,0,0,1,10.952,1.96l2.131.645,2.344.722L83.6,85.429l5.5,1.64,3.582,1.054,4.434,1.22.6.172,1.7.385c2.522.485,5.079.734,7.631.977l3.114.255,1.2.083H112.9l.722-.041h.639l.894-.041.426-.041,1.2-.083a35.45,35.45,0,0,0,3.623-.468,4.745,4.745,0,0,0,2.019-.746,1.979,1.979,0,0,0,.409-.882l.521-2c.349-1.628.657-3.25.9-4.9l.249-2.261.041-.426V78.212c0-.3-.018-.485-.385-.462-.438.024-.5.326-.894.4l-.343.03a4.84,4.84,0,0,1-1.066.071l-.811-.041-1.024-.083-2.386-.207-8.785-.941-6.565-.746a108.045,108.045,0,0,1-15.813-3.286l-2.214-.764L80.8,70.978c-2.93-1.018-5.879-2-8.868-2.848a53.457,53.457,0,0,0-5.754-1.368l-1.533-.2a33.538,33.538,0,0,0-3.919-.332L60,66.188H57.4l-.722.041-1.622.083-1.7.142-1.622.266a12.7,12.7,0,0,0-2.131.515,2.14,2.14,0,0,0-.793.4,2.316,2.316,0,0,0-.308.722l-.32,1.45c-.207,1.243-.326,2.5-.414,3.753l-.124,1.918-.041.811-.041.722-.041,1.409-.041.894A4.627,4.627,0,0,1,48.445,78.911Zm3.41-5.642c.237.006.6.112.811-.024a7.718,7.718,0,0,0,.8-.953,22.863,22.863,0,0,0,1.871-2.9l.515-1.066c.112-.237.083-.373.349-.468a27.205,27.205,0,0,0,.249,2.771,16.684,16.684,0,0,0,1.344,5.713,5.366,5.366,0,0,0,1.054,1.439l.781.616a.361.361,0,0,1,.065.166,4.854,4.854,0,0,1-2.09-.337,2.855,2.855,0,0,1-1.036-1.072l-1.149-1.581a5.706,5.706,0,0,0-2.031-1.439l-.639-.266a6.278,6.278,0,0,1-.894,1.066A12.555,12.555,0,0,1,50.061,76.6a1.534,1.534,0,0,1-.852.337.348.348,0,0,1-.367-.337c0-.355.61-.681.876-.853a13.306,13.306,0,0,0,2.557-2.048l-1.024-.077a4,4,0,0,0-1.2.42C50.286,73.464,51.3,73.257,51.855,73.269Zm2.463-1.45-.882,1.2-.391.509a7.965,7.965,0,0,1,1.7.628l.811.485-.2-1.107c-.089-.568-.266-2.315-.272-2.854Zm16.541,1.024c.13-.752.29-1.5,1.072-1.823.58-.243,1.083.077,1.664.16a.864.864,0,0,1-.811.515c-.172-.018-.521-.148-.633,0a6.028,6.028,0,0,0-.184.764l-.462,2c.823-.515,1.385-1.137,2.427-.853.284.077.4.053.6.3a4.2,4.2,0,0,0-1.575.243l-.935.349v.083c.628.3.628,1,.764,1.575.065.278.178.663.474.77a1.289,1.289,0,0,0,.556-.047c-.278.515-1.119.924-1.545.337-.308-.426-.243-.971-.4-1.45a1.736,1.736,0,0,0-.485-.681l-.112.556c-.095.468-.154.977-.657,1.184a1.463,1.463,0,0,1-.557.053ZM59.006,71.771a1.045,1.045,0,0,1,.3.817v.935l.041.681c0,.213-.024.5.148.663.29.278.776-.3.9-.539a.95.95,0,0,0,.1-.509v-1.2a.815.815,0,0,1,.556-.888,1.154,1.154,0,0,1,.426-.047V72.5l-.041.681v1.533c.012.7.616.118.894-.041a2.461,2.461,0,0,1-.935,1.077.578.578,0,0,1-.675,0c-.249-.189-.184-.551-.26-.823-.243.545-1.433,1.439-1.835.6a3.007,3.007,0,0,1-.166-1.2l-.041-.509-.047-.983-.041-.509-.6.213C57.911,71.931,58.639,71.528,59.006,71.771Zm6.53,3.718a1.8,1.8,0,0,1-1.45.509,1.456,1.456,0,0,1-.722-.2,1.806,1.806,0,0,1-.675-1.462,2.454,2.454,0,0,1,1.143-2.244,1.717,1.717,0,0,1,1.918.118c.124.1.326.255.361.42.047.207-.219.42-.361.545L64.429,74.3c-.148.13-.568.408-.468.628a.761.761,0,0,0,.426.314c.61.219,1.03-.095,1.575-.314A1.1,1.1,0,0,1,65.536,75.489Zm1.492-3.209a.456.456,0,0,1,.568.065c.2.243.083.924.03,1.225.343-.243.58-.61.935-.835.545-.337,1.368-.343,1.32.491l-.166.983-.343,2L70.012,76c-.32.651-1.285.918-1.533.3a1.787,1.787,0,0,1,.024-.77l.255-1.492c.036-.213.118-.746-.278-.633a1.451,1.451,0,0,0-.426.284,1.578,1.578,0,0,0-.5.61,8.058,8.058,0,0,0-.178.983,1.69,1.69,0,0,1-.13.6.96.96,0,0,1-.9.385l.124-.935.3-2.386-.639.172A1.912,1.912,0,0,1,67.028,72.28ZM64.34,73.991a1.667,1.667,0,0,0,.539-.811c.053-.355-.231-.764-.628-.663-.48.124-.6.971-.6,1.391l.041.6A3.049,3.049,0,0,0,64.34,73.991Zm10.911.107c.237-.071.462-.059.58.2s-.13.941-.2,1.237c.444-.355,1.225-.989,1.835-.829a.657.657,0,0,1,.337,1.042,3.9,3.9,0,0,1-1.445.853c.1-.237.42-.7.361-.935-.047-.207-.237-.225-.408-.16a2.743,2.743,0,0,0-.793.545,5.364,5.364,0,0,0-.42,1.149,1.076,1.076,0,0,1-.249.539,1.368,1.368,0,0,1-.888.231,4.3,4.3,0,0,1,.225-.894l.373-1.32c.059-.184.266-.728.166-.888s-.361-.047-.509,0A1.715,1.715,0,0,1,75.251,74.1Zm14.9,5.352a1.326,1.326,0,0,1-.29.509,1.571,1.571,0,0,1-1.61.172,2.4,2.4,0,0,1-1.746-2.256,2.973,2.973,0,0,1,.142-1.066,2.39,2.39,0,0,1,.32-.681,2.425,2.425,0,0,1,2.007-.894,7.549,7.549,0,0,1,2.048.491l1.2.361,1.918.58c.237.077.551.077.6.355-.474-.024-1.208-.225-1.616.1a1.189,1.189,0,0,0-.361.835l-.243,1.533-.4,2.516a8.349,8.349,0,0,0-.142,1.45,7.961,7.961,0,0,0,1.166,2.475,5.919,5.919,0,0,0,2.954,2.3c.408.13.947.249,1.267-.13a.53.53,0,0,0,.13-.426c-.053-.556-.858-.847-.332-1.2a1.157,1.157,0,0,1,.172-.083.741.741,0,0,1,.255-.041c.781.018.853.852.722,1.445a1.193,1.193,0,0,1-.811.989,2.167,2.167,0,0,1-.556.036,5.111,5.111,0,0,1-1.279-.284,6.423,6.423,0,0,1-1.835-.888,8.084,8.084,0,0,1-1.373-1.468,11.168,11.168,0,0,0-1.61-2.019,6.1,6.1,0,0,0-1.746-.645,4.514,4.514,0,0,0-1.279-.3c-.71.047-.888.314-1.492.574a.982.982,0,0,1,.426-.58,1.909,1.909,0,0,1,.509-.3c.805-.326,1.788.154,2.344.189.817.047.829-.781.918-1.362l.592-3.665c.107-.669.314-1.2-.231-1.746a2.066,2.066,0,0,0-1.066-.527,1.98,1.98,0,0,0-2,.243,2.5,2.5,0,0,0-.58,2.2,3.047,3.047,0,0,0,.373.811,1.665,1.665,0,0,0,1.225.852,1.118,1.118,0,0,0,.929-.385c.219-.237.172-.326.474-.551A.99.99,0,0,1,90.152,79.449Zm-11.4-4.174c.474-.036.781.237.71.716a16.613,16.613,0,0,1-.71,1.877c-.1.255-.343.776.083.876a1.416,1.416,0,0,0,.888-.367,10.207,10.207,0,0,0,.764-1.527,1.035,1.035,0,0,1,.225-.326.853.853,0,0,1,.841-.071c.272.148-.16.752-.26.947l-.6,1.237a3.622,3.622,0,0,0-.337.722c-.036.225.189.355.391.373.231.018.527-.184.77-.243a1.582,1.582,0,0,1-.935.7,1.662,1.662,0,0,1-.385.024c-.32-.006-.776-.059-.876-.426a1.3,1.3,0,0,1,.154-.722,3.166,3.166,0,0,1-1.237.337c-.551-.024-.728-.337-.675-.853a13.987,13.987,0,0,1,.663-1.918c.077-.213.432-.835.095-.941a2.021,2.021,0,0,0-.379,0A1.11,1.11,0,0,1,78.75,75.276Zm42.495,1.018c-.166.112-.355.468-.213.657.083.107.3.1.426.118l1.148.036a2.019,2.019,0,0,0,1.143-.266.6.6,0,0,0-.124-.876,1.442,1.442,0,0,0-.805-.124A4.166,4.166,0,0,0,121.245,76.294Zm-39.428,3.54a2.524,2.524,0,0,1,.337-1.32,2.784,2.784,0,0,1,2.054-1.32,3.219,3.219,0,0,1,.853.118l.586.166c.154.089.03.426,0,.568l-.432,1.7-.391,1.533a3.556,3.556,0,0,1-1.042,2.143,2.79,2.79,0,0,1-.722.48c-.633.266-1.6.189-1.841-.574a1.8,1.8,0,0,1-.077-.468,2.6,2.6,0,0,1,.58-1.533c.2-.237.343-.3.527-.556C81.858,80.586,81.817,80.219,81.817,79.834Zm2.6-2.3a1.466,1.466,0,0,0-1.32.888c-.2.414-.391,1.344.3,1.362.255.006.7-.041.858-.266a3.655,3.655,0,0,0,.243-.841l.26-1.107Zm10.567,2.445a.326.326,0,0,1-.166-.628C95.332,79.242,95.261,79.917,94.983,79.982Zm3.67,1.989c.29-.184.971-.42,1.154.036a.925.925,0,0,1,.036.337l-.142.894a2.674,2.674,0,0,1-.793,1.812,1.7,1.7,0,0,1-2.108-.065,1.119,1.119,0,0,1-.237-.847,7.719,7.719,0,0,1,.237-1.362l.213-.894.284-1.237a1.651,1.651,0,0,1,.758-1.113,2.39,2.39,0,0,1,1.492.047.776.776,0,0,1-.556.456c-.243.041-.48-.095-.651.148a2.591,2.591,0,0,0-.207.764l-.373,1.746A9.29,9.29,0,0,1,98.653,81.971ZM88.465,88.016l-4.73-1.492c-4.482-1.391-8.957-2.782-13.468-4.067l-2.6-.776-2.853-.675c-2.285-.5-4.624-.906-6.95-1.184l-1.918-.213-.805-.065c-.124.024-.29.266-.373.367l-.811,1.024c-1.048,1.4-2.06,2.806-3.025,4.262a39.745,39.745,0,0,0-3.842,7.033l-.474,1.409-.207.853-.551,1.746-.793,3.327a38.177,38.177,0,0,0-.929,7.8l.083,1.107v.639l.041.426.207,1.877a42.456,42.456,0,0,0,.829,4.3,30.915,30.915,0,0,0,2.735,7.542l.858,1.362.793,1.237a34.766,34.766,0,0,0,2.25,2.853,52.711,52.711,0,0,0,8.407,7.838A45.679,45.679,0,0,0,65.667,140l.426.2,1.149.556a17.667,17.667,0,0,0,6.139,1.782l.894.077h1.746l1.066-.077a3.172,3.172,0,0,0,.6-.077,1.829,1.829,0,0,0,.385-.272l.77-.633L80.8,139.8l.385-.343.343-.385.716-.722a29.558,29.558,0,0,0,2.729-3.41,49.738,49.738,0,0,0,4.73-9.295,20.2,20.2,0,0,0-2.942-.172l-.853.041a11.207,11.207,0,0,0-1.533.184,8.756,8.756,0,0,0-.853.539l-1.409.876a11.908,11.908,0,0,1-4.558,1.545,6.359,6.359,0,0,1-1.107-.071,11.3,11.3,0,0,1-1.835-.3l-1.024-.314a2.005,2.005,0,0,0-.509.107,4.589,4.589,0,0,1-.935.112,10.438,10.438,0,0,1-1.918-.154l-.935-.219-1.788-.385-1.96-.545-1.066-.4-.509-.219a4.842,4.842,0,0,0-.852.213,10.9,10.9,0,0,1-1.877.314,3.242,3.242,0,0,1-.935-.112c-.562-.095-1-.083-1.379-.61a2.579,2.579,0,0,1-.16-1.788,25.6,25.6,0,0,1,.852-4.772,34.794,34.794,0,0,1,3.765-8.7,17.781,17.781,0,0,1,1.273-1.835c.308-.373.426-.6.935-.6h1.149l.983-.041.639-.041,1.024-.041,1.107-.083,1.664-.095,2.09-.166,12.231-.9,1.492-.118,1.664-.095.3-.041h.426l.468-.041.811-.041,1.279-.041v-.385l1.45.041H97.12a10.375,10.375,0,0,0-1.03-2.475c-.87-1.569-2.226-3.57-3.913-4.3l.207,2.173.355,3.369.118,1.237h-.935l-.509.041h-.391l-.722.041-.426.041h-.385l-1.575.124-8.229.6c-1.45.1-2.895.255-4.345.255l-.077-.853a6.749,6.749,0,0,1,1.865-3.966,10.149,10.149,0,0,1,1.237-1.279,2.858,2.858,0,0,0,1.622,1.279l.041-.213a5.9,5.9,0,0,1-2.309-4.434l-.077-.853A7.98,7.98,0,0,1,77.7,96.02c.036-.266.142-.408-.059-.639a5.783,5.783,0,0,0-.716-.562l-1.362-1.036a4.877,4.877,0,0,1-.5-.491c-.065-.083-.154-.231-.243-.272a1.03,1.03,0,0,0-.622.077c-.456.148-.835.349-1.231-.03a.638.638,0,0,1-.184-.284,1.763,1.763,0,0,1-.036-.468c.006-.669.45-.811.983-1.054a1.664,1.664,0,0,0,.337-.178c.231-.184.118-.32.225-.521a.806.806,0,0,1,1.012-.243c.6.32.225,1.285.5,1.776a6.667,6.667,0,0,0,1.675,1.634,3.9,3.9,0,0,1,1.2,1.006,12.458,12.458,0,0,1,1.622-.172h.841a6.217,6.217,0,0,1,4.174,1.664,7.139,7.139,0,0,1,.947,1.237,9.513,9.513,0,0,1,.924,2.261,4.253,4.253,0,0,0,.515,1.409,1.534,1.534,0,0,0-.036-.935l-.42-1.492-.225-.681a6.693,6.693,0,0,1,1.237.059,13.623,13.623,0,0,1,3.238,1.083l.639.3-.089-.77-.178-1.279-.645-3.878-.7-3.582-.308-1.409Zm7.418-7.749a.327.327,0,0,1,0-.61C96.416,79.639,96.238,80.367,95.883,80.266Zm-48.077.207a.448.448,0,0,0-.071.764.767.767,0,0,0,.367.041,5.19,5.19,0,0,0,2.09-.764c.142-.095.556-.349.485-.551s-.568-.184-.74-.166A5.657,5.657,0,0,0,47.806,80.473Zm35.461.136c-.628.4-1.03.6-1.32,1.35-.219.586-.249,1.551.639,1.486a1.088,1.088,0,0,0,.853-.675,6.551,6.551,0,0,0,.314-1.107l.367-1.533A5.006,5.006,0,0,0,83.267,80.61Zm12.19.172a1.889,1.889,0,0,1,.7,2.546,2.165,2.165,0,0,1-1.6,1.166A1.537,1.537,0,0,1,92.686,82.9a2.109,2.109,0,0,1,2.771-2.119Zm10.9,5.02.213-2.214.219-1.835a1.272,1.272,0,0,1,1.285-.977l.811.083a.723.723,0,0,1-.556.5c-.207.036-.426-.036-.58.118s-.136.5-.148.7l-.124,1.362a1.47,1.47,0,0,0,0,.681,2.51,2.51,0,0,1,1.237-1.172c.527-.2.835.077.805.622l-.077.681-.047,1.066c0,.207-.124.835.053.947.118.077.379-.083.5-.136a.93.93,0,0,1-.853.681c-.663.03-.7-.367-.639-.894V85.63l.083-.983c0-.225.142-.7-.213-.728-.225-.018-.539.314-.675.468a1.125,1.125,0,0,0-.3.509c-.148.6.118,1.48-.681,1.741a1.233,1.233,0,0,1-.385.053ZM93.615,82.516l-.071.556c-.024.6.373,1.137,1.024,1.024.7-.118.841-.9.9-1.492a2.38,2.38,0,0,0,.036-.468c-.024-.574-.272-1.113-.935-1.054C93.882,81.243,93.716,81.912,93.615,82.516Zm22.177.639.722-.041c-.107.367-.326.438-.681.468l.041,1.492.041.722c0,.154-.036.462.136.539.2.089.491-.255.8-.408a2.041,2.041,0,0,1-.722.983c-.255.172-.74.278-.947,0a1.063,1.063,0,0,1-.118-.556l-.041-.77v-1.96h-.557c.2-.444.462-.491.752-.852a3.8,3.8,0,0,0,.485-.983A4.516,4.516,0,0,1,115.792,83.155Zm-3.966-.633a.334.334,0,0,1-.444-.3.361.361,0,0,1,.231-.308A.323.323,0,0,1,111.826,82.522Zm1.225-.527a.342.342,0,0,1-.041.515.319.319,0,1,1-.332-.545A.367.367,0,0,1,113.051,81.995Zm-12.977,2.782a1.755,1.755,0,0,0,.882.835c.3.112.752.059.817-.32.036-.2-.172-.385-.308-.5a6.726,6.726,0,0,1-1.131-.9,1.05,1.05,0,0,1-.237-.639,1.466,1.466,0,0,1,.059-.509,1.575,1.575,0,0,1,.148-.337c.26-.391.953-.4,1.368-.3l.681.2a1.465,1.465,0,0,0,.426-.03l-.468.852a.7.7,0,0,1-.26-.213,2.107,2.107,0,0,0-.29-.272c-.243-.172-.787-.373-.971-.024-.142.272.266.562.462.693.633.414,1.255.71,1.237,1.563a1.41,1.41,0,0,1-.059.385c-.237.793-.918.781-1.6.722a1.477,1.477,0,0,1-.989-.391,2,2,0,0,1,0-1.314Zm-2.415-1.533a4.043,4.043,0,0,0-.243,1.066c-.006.3.053.645.426.675a.638.638,0,0,0,.628-.42,4.449,4.449,0,0,0,.314-1.279c.053-.3.225-.639-.172-.734A1.317,1.317,0,0,0,97.659,83.244Zm7.815,2.853a1.762,1.762,0,0,1-1.409.343,1.3,1.3,0,0,1-1.006-.426,1.792,1.792,0,0,1-.231-1.149,2.2,2.2,0,0,1,2.214-2.3A1.5,1.5,0,0,1,106.1,83a.568.568,0,0,1,.083.722,1.651,1.651,0,0,1-.278.26.925.925,0,0,1-.343.166,1.531,1.531,0,0,0-.231-.509,1.205,1.205,0,0,0-.752-.5c-.343,0-.639.468-.746.752a2.005,2.005,0,0,0-.107.77,1.2,1.2,0,0,0,.681,1.119,1.441,1.441,0,0,0,.385.148c.367.065.7-.2,1.066-.284A1.325,1.325,0,0,1,105.473,86.1Zm11.935-2.83a2.506,2.506,0,0,1,1.19-.326l1.533-.207a20.383,20.383,0,0,1-1.32,1.918,4.78,4.78,0,0,0,1.107-.3,1.418,1.418,0,0,1-.811.947c-.26.077-.474-.018-.77.118a1.53,1.53,0,0,0-.681.853l1.362-.166a1.762,1.762,0,0,0,.811-.178,1.279,1.279,0,0,0,.408-.426c.107-.189.065-.3.272-.426.03.4.136,1.024-.112,1.362-.225.3-.616.278-.953.3l-2.173.207a1.774,1.774,0,0,1,.556-1.533,3.218,3.218,0,0,0-.983.213,1.675,1.675,0,0,1,.853-.858c.219-.065.42.006.633-.124l.983-1.107-1.409.2c-.172.036-.408.136-.367.355.03.166.249.266.367.385C117.065,84.718,116.781,83.747,117.408,83.268Zm-6.861-.065c.373-.225.858-.213.947.3a1.25,1.25,0,0,1,.024.3l-.03,1.107a3.307,3.307,0,0,0,0,1.107c.3.562,1-.178,1.137-.509a1.592,1.592,0,0,0,.053-.556l.041-.935c0-.616.231-.853.852-.853l-.041.811v1.575c0,.2-.059.7.136.805s.616-.243.8-.337a2.163,2.163,0,0,1-1.024,1.03.539.539,0,0,1-.675-.1,1.479,1.479,0,0,1-.095-.758,4.607,4.607,0,0,1-.681.592,1.369,1.369,0,0,1-.681.255c-.468.018-.645-.142-.728-.6a1.11,1.11,0,0,1-.03-.343l.036-.722.041-.935c.006-.237.172-.841-.255-.8l-.255.077A1.039,1.039,0,0,1,110.547,83.2ZM100.8,93.6a.647.647,0,0,0-.178.379l-.219.722a7.671,7.671,0,0,0-.639,2.854,1.681,1.681,0,0,0,.343,1.024,2.082,2.082,0,0,0,1.45.663c.207.03.7-.036.823.118a.793.793,0,0,1,.095.373,9.851,9.851,0,0,1-.136,1.409l-.379,2.173a3,3,0,0,1-.657,1.356c-.545.515-.894.213-1.4.468a.765.765,0,0,0-.509.734.584.584,0,0,0,.112.379c.166.219.332.2.568.225l1.2.083,3.025.207,1.788.13.385.036a.729.729,0,0,0,.42-.065.737.737,0,0,0,.083-1.03,2.42,2.42,0,0,0-.764-.26,2.25,2.25,0,0,1-.811-.48,3.614,3.614,0,0,1-.924-1.569,9.89,9.89,0,0,1-.438-3.2,1.449,1.449,0,0,1,.189-.841c.124-.13.4-.154.58-.2a3.518,3.518,0,0,0,.894-.385,1.81,1.81,0,0,0,.811-1.64,7.951,7.951,0,0,0-.847-2.729l-.231-.556a.631.631,0,0,0-.172-.349,2.4,2.4,0,0,0-.758-.225,11.5,11.5,0,0,0-2-.142C102.028,93.338,101.175,93.3,100.8,93.6ZM73.025,97.139c.308.977-.847,1.279-1.154,2a.963.963,0,0,0,0,.681c.036.083.077.231,0,.3-.154.1-.272-.16-.314-.255-.184-.355-.332-.6-.1-.983a3.642,3.642,0,0,1,.811-.841,1.7,1.7,0,0,0,.527-.521,1.747,1.747,0,0,0,.065-.681A.691.691,0,0,1,73.025,97.139ZM71.5,104.213a.529.529,0,0,1-.272-.041l-.474-.681a3.415,3.415,0,0,0-.835-.734c-.112-.071-.379-.172-.414-.3a1.264,1.264,0,0,1,.112-.586,2.359,2.359,0,0,1,1.113-1.137,3.058,3.058,0,0,1,3.327.545,2.333,2.333,0,0,1,.468.468,3.282,3.282,0,0,0-2.214,2.475H71.5Zm2.516.041-.639.041c-.136,0-.645.036-.722-.071s.036-.379.071-.485a2.741,2.741,0,0,1,.781-1.208,2.98,2.98,0,0,1,3.41-.237,6.88,6.88,0,0,0-1.32,1.96Zm-7.033-1.326a3.4,3.4,0,0,1,2.812.1,1.764,1.764,0,0,1,1.066,1.143,23.188,23.188,0,0,1-3.327-.2,4.513,4.513,0,0,1-1.492-.355v-.083A4.631,4.631,0,0,1,66.987,102.928Zm-1.45.953,1.107.225a40.771,40.771,0,0,0,6.009.4,20.339,20.339,0,0,0,2.771-.083l-.16.556a11.336,11.336,0,0,0-.349,2.475,23.011,23.011,0,0,1-3.238.385l-.468.041-.935.041H68.4a4.351,4.351,0,0,1-.935-.107,3.68,3.68,0,0,1-1.237-1,7.574,7.574,0,0,1-1.45-3.155Zm25.912,21.94.6.041h.722l.426-.041h.426l.426-.041a21.875,21.875,0,0,0,3.327-.533l3.795-1.024a17.964,17.964,0,0,1,3.54-.669l.385-.036.468.041h.385l.894.142a25.692,25.692,0,0,1,4.73,1.415l.852.343c.314.13.539.308.841,0a1.924,1.924,0,0,0,.373-1.225,1.9,1.9,0,0,0-.243-.385l-.444-.681a24.483,24.483,0,0,1-2.457-5.583,27.216,27.216,0,0,1-1.018-4.9l-.124-1.362-.041-.426v-.426l-.041-.426v-1.279c0-.172.083-.675,0-.781a.613.613,0,0,0-.255-.13l-.722-.184a23.3,23.3,0,0,0-2.853-.4l-1.2-.118-1.96-.136L101,106.93l-.681-.041-.639-.041-1.2-.041-.556-.041h-.639l-.509-.041h-.639l-.509-.041h-.722l-.681-.041h-1.32V108l-.053.9-.077.983-.172,1.835c-.2,1.971-.491,3.931-.841,5.885a43.038,43.038,0,0,1-2.066,8.057Zm12.018-1.7a3.02,3.02,0,0,0,.041.6l.047,1.45-.118,1.492a28.432,28.432,0,0,1-.947,4.819l-.5,1.622a2.486,2.486,0,0,0-.219.675c.036.172.326.178.462.178a1.958,1.958,0,0,0,.722-.095,3.34,3.34,0,0,0,.645-.675,16.712,16.712,0,0,0,1.1-1.533,15.917,15.917,0,0,0,2.427-6.352l.059-.894.036-.385-.041-.6c-.006-.124.018-.266-.071-.367a1.7,1.7,0,0,0-.657-.255,7.775,7.775,0,0,0-1.918-.178C104.2,123.667,103.579,123.726,103.467,124.117Zm-35.757,3.771,1.575.284a3.666,3.666,0,0,1,1.054.255c.142.118.142.5.142.681v1.107l.071.852a12.427,12.427,0,0,0,.752,3.067,23.865,23.865,0,0,0,1.19,2.557,3.781,3.781,0,0,1,.367.722.322.322,0,0,1-.095.213c-.142.178-.556.491-.8.444a2.519,2.519,0,0,1-.681-.462,12.1,12.1,0,0,1-1.456-1.557,15.476,15.476,0,0,1-2.848-5.837,11.794,11.794,0,0,1-.391-2.6A3.564,3.564,0,0,1,67.709,127.888Z" transform="translate(-43.2 -37.6)" fill="#88001a"/>
      </g>
    </g>
  </g>
</svg>
