<svg xmlns="http://www.w3.org/2000/svg" viewBox="0 0 74.37 74.35" fill="#4285f4"><path d="M70.55 7.52V0H0v70.54h7.52v3.8H55.1c11 0 19.27-7.14 19.27-18.1V7.52zM4 4h62.55v51.24a11.32 11.32 0 0 1-11.3 11.3H4zm28.78 18.35v3.6H20.64v7.84h9.8v3.55h-9.8v7.28h12.14v3.64h-16v-25.9zm14.54 7.35a7.56 7.56 0 0 1 3.31.75 8.67 8.67 0 0 1 2.71 2.06 10.27 10.27 0 0 1 1.82 3.07 11 11 0 0 1 0 7.49 10.09 10.09 0 0 1-1.82 3.06 8.67 8.67 0 0 1-2.71 2.06 7.65 7.65 0 0 1-7-.16 9.05 9.05 0 0 1-2.85-2.48v2.73h-3.82V22.35h3.82v10.82a9 9 0 0 1 2.85-2.51 7.48 7.48 0 0 1 3.69-.97zm-1 15.43a5.37 5.37 0 0 0 2.17-.45 5.3 5.3 0 0 0 1.75-1.25 6.41 6.41 0 0 0 1.17-1.83 5.82 5.82 0 0 0 0-4.45 6 6 0 0 0-1.17-1.81 5.39 5.39 0 0 0-1.75-1.23 5.07 5.07 0 0 0-2.17-.46 5 5 0 0 0-2.15.46 5.83 5.83 0 0 0-1.75 9.32 5.56 5.56 0 0 0 1.75 1.25 5.15 5.15 0 0 0 2.15.45z"/></svg>