<svg xmlns="http://www.w3.org/2000/svg" viewBox="0 0 306.66 224.82"><defs><style>.a{fill:#1f516b;}.b,.c{fill:#fff;}.c{opacity:0;}</style></defs><title>wwuCenter</title><path class="a" d="M153.16,0A112.24,112.24,0,0,0,63.08,45.16c2.58,20.46,2.14,41.29,4,61.81a201.93,201.93,0,0,0,3.51,25.5,165.12,165.12,0,0,1,4.24-20.09C78.43,99.5,83.19,86,92.56,76.13c.63-.66,7-.21,11.13,0h3.43c.14,10.16,7.7,17.82,15,25.29,1.18-9.24-.84-19.56,1.38-28.33,0-.15,13.73-.75,14.56,0,3.88,3.51,9,6,13.67,8.38a85.18,85.18,0,0,0,9.66,4.32c1.07.37,2.15.74,3.24,1a162.17,162.17,0,0,1,31.16-.67c-4.81-.39-9.73.41-14.56,0,5.82.49.14.22-1.33.44-1.74.25-3.49.55-5.24.73-2.35.25-4.66.33-7,.36-4.87.06-10.4.7-15.22-.3A67.33,67.33,0,0,1,137,81.94c-.3,10.85,1.81,22.62-4.78,31.4-.49.65-14.19.58-14.56,0-4.95-8-14.3-15-20.08-23.33a116.27,116.27,0,0,0-8.66,24.38c-3.37,13.5-5.53,27.44-5.3,41.38H80.92c-3.93.1-10.92.35-11.89,0-8.89-3.22-11.51-16.23-13.13-24.28C53,116.83,52,101.83,51.14,86.92c-.36-6.54-.6-13.11-.91-19.68A112.41,112.41,0,1,0,153.16,0Z"/><path class="a" d="M62.68,41.9c-1-7.39-3.63-18.59-12.33-20.17-7-1.28-17.14-1.24-23.51,2.41-8.37,4.8-14.4,14-19,22.23S-.91,64.8.17,74.41c.08.66,14.51-.43,14.56,0-1.26-11.09,4.36-22.62,9.91-31.86C28.37,36.35,34,28.3,41,24.22,46.56,29,47.91,39.47,48.65,46c.8,7,1.24,14.12,1.58,21.2A111.61,111.61,0,0,1,63.08,45.16C62.94,44.08,62.83,43,62.68,41.9Z"/><path class="b" d="M219.19,114.2q0,5.49,2.25,8.23t7.09,2.74c3.22,0,5.59-.91,7.08-2.74s2.25-4.57,2.25-8.23V97.32l-.65,0c-.25,0-.48,0-.68,0s-.46,0-.69,0l-.61,0v16.54q0,4.76-1.62,6.78t-5.08,2a8.45,8.45,0,0,1-3-.48,4.61,4.61,0,0,1-2.08-1.54,7.35,7.35,0,0,1-1.22-2.72,18,18,0,0,1-.4-4.06V97.32l-.61,0c-.23,0-.45,0-.68,0s-.43,0-.69,0l-.65,0Zm-30.63,10.52c.18,0,.45,0,.82,0s.68,0,.94,0,.52,0,.87,0,.62,0,.8,0l6.1-23.85,6.13,23.85c.18,0,.45,0,.82,0s.68,0,.93,0,.52,0,.88,0,.62,0,.8,0l6.63-27.4c-.15,0-.38,0-.67,0s-.56,0-.82,0-.46,0-.7,0l-.67,0-5.37,24.46L199.8,97.32c-.18,0-.44,0-.8,0s-.63,0-.84,0-.51,0-.85,0-.59,0-.75,0l-6.28,24.46L185,97.32c-.18,0-.42,0-.72,0s-.57,0-.8,0-.54,0-.84,0-.53,0-.69,0Zm-35.09,0c.18,0,.46,0,.82,0s.68,0,.94,0,.52,0,.87,0,.63,0,.8,0l6.1-23.85,6.13,23.85c.18,0,.45,0,.82,0s.68,0,.94,0,.52,0,.87,0,.62,0,.8,0l6.63-27.4c-.15,0-.37,0-.67,0s-.56,0-.81,0-.47,0-.71,0l-.67,0L171,121.78l-6.25-24.46c-.17,0-.44,0-.8,0s-.63,0-.83,0-.52,0-.86,0-.59,0-.74,0l-6.29,24.46-5.3-24.46c-.17,0-.42,0-.72,0s-.57,0-.8,0-.53,0-.84,0-.53,0-.68,0Z"/><path class="b" d="M225.34,150.05l.34,0h.85l.36,0v-7.87h8v7.87l.36,0h.84l.35,0V133.88a2,2,0,0,0-.38,0l-.41,0-.4,0a2,2,0,0,0-.36,0v6.88h-8v-6.88a2,2,0,0,0-.36,0l-.41,0-.4,0a2,2,0,0,0-.38,0Zm-13.57-.34a11.28,11.28,0,0,0,1.56.42,9.63,9.63,0,0,0,1.95.19,6.32,6.32,0,0,0,4.75-1.69,6.42,6.42,0,0,0,1.64-4.67,8.31,8.31,0,0,0-.35-2.55,4.77,4.77,0,0,0-1-1.75,3.65,3.65,0,0,0-1.49-1,5.49,5.49,0,0,0-1.94-.33,4.19,4.19,0,0,0-2.3.57,4.6,4.6,0,0,0-1.36,1.3v-6.66a1.87,1.87,0,0,0-.38,0l-.36,0-.37,0a1.87,1.87,0,0,0-.38,0Zm1.49-6.34a4,4,0,0,1,.35-1.79,3.2,3.2,0,0,1,2-1.74,4.28,4.28,0,0,1,1.17-.18,2.79,2.79,0,0,1,2.51,1.17,5.74,5.74,0,0,1,.78,3.22,5.94,5.94,0,0,1-.38,2.23,4.1,4.1,0,0,1-1,1.54,3.77,3.77,0,0,1-1.43.9,5,5,0,0,1-1.73.3,9.37,9.37,0,0,1-1.22-.08,5.42,5.42,0,0,1-1.09-.26ZM193,150.05a2.77,2.77,0,0,0,.38,0h.73a2.77,2.77,0,0,0,.38,0v-5.76a7.12,7.12,0,0,1,.23-1.9,5.22,5.22,0,0,1,.66-1.49,3.27,3.27,0,0,1,1-1,2.46,2.46,0,0,1,1.28-.35,1.78,1.78,0,0,1,1.58.83,4.71,4.71,0,0,1,.56,2.57v7.08a2.6,2.6,0,0,0,.38,0h.73a2.6,2.6,0,0,0,.37,0v-6.72a5,5,0,0,1,.19-1.41,3.77,3.77,0,0,1,.55-1.16,2.6,2.6,0,0,1,.9-.78,2.55,2.55,0,0,1,1.26-.3,2,2,0,0,1,1.79.88,4.82,4.82,0,0,1,.6,2.7v6.79a2.6,2.6,0,0,0,.38,0h.73a2.6,2.6,0,0,0,.37,0v-7.31a5.27,5.27,0,0,0-.89-3.28,4.08,4.08,0,0,0-4.07-1,3.45,3.45,0,0,0-.93.5,4.23,4.23,0,0,0-.72.68c-.21.26-.4.51-.56.74-.14-.31-.29-.59-.44-.85a2.66,2.66,0,0,0-.59-.66,2.39,2.39,0,0,0-.82-.44,3.4,3.4,0,0,0-1.12-.16,3.73,3.73,0,0,0-1.25.19,3.67,3.67,0,0,0-1.72,1.23,4.09,4.09,0,0,0-.52.83c0-.3,0-.64,0-1s0-.7-.07-1l-.34,0h-.66l-.35,0Zm-5.51-1.51a5,5,0,0,1-1.18.26,13.63,13.63,0,0,1-1.7.08,6.67,6.67,0,0,1-2.33-.4,5.22,5.22,0,0,1-1.9-1.24,6,6,0,0,1-1.28-2.1,8.77,8.77,0,0,1-.47-3,9.34,9.34,0,0,1,.44-3,6.73,6.73,0,0,1,1.21-2.25,5.2,5.2,0,0,1,1.86-1.4,5.57,5.57,0,0,1,2.36-.49,10.14,10.14,0,0,1,2.11.19,12,12,0,0,1,1.33.37,6.26,6.26,0,0,0,.24-.67,5.31,5.31,0,0,0,.12-.7c-.39-.12-.9-.24-1.53-.37a12,12,0,0,0-2.36-.19,7.58,7.58,0,0,0-3,.57,6.77,6.77,0,0,0-2.36,1.67,7.65,7.65,0,0,0-1.56,2.67,10.64,10.64,0,0,0-.57,3.61,10.18,10.18,0,0,0,.58,3.56,7.25,7.25,0,0,0,1.58,2.56,6.45,6.45,0,0,0,2.41,1.55,8.46,8.46,0,0,0,3,.52c.41,0,.82,0,1.24,0s.83-.08,1.23-.14.77-.13,1.12-.22a4.34,4.34,0,0,0,.91-.34v-7.87l-.36,0h-.81l-.38,0ZM159,150.05a2.77,2.77,0,0,0,.39,0h.73a2.78,2.78,0,0,0,.37,0v-5.67a6.19,6.19,0,0,1,.29-2,4.32,4.32,0,0,1,.8-1.47,3.42,3.42,0,0,1,1.2-.91,3.59,3.59,0,0,1,1.49-.32,2,2,0,0,1,1.78.83,4.83,4.83,0,0,1,.6,2.75v6.79a2.77,2.77,0,0,0,.38,0h.73a2.6,2.6,0,0,0,.37,0v-7.24a5.44,5.44,0,0,0-.89-3.32,3.38,3.38,0,0,0-2.88-1.18,4.34,4.34,0,0,0-1.38.21,4.44,4.44,0,0,0-1.11.56,4.33,4.33,0,0,0-.84.75,5.06,5.06,0,0,0-.59.82c0-.3,0-.65,0-1.06s0-.74-.07-1l-.33,0h-.67l-.35,0Zm-11.45-6.75a4.69,4.69,0,0,1,1.06-2.72,3.56,3.56,0,0,1,3.92-.65,2.94,2.94,0,0,1,1,.82,3.48,3.48,0,0,1,.56,1.18,5.31,5.31,0,0,1,.18,1.37Zm8.15,1.24q0-.22,0-.54c0-.21,0-.38,0-.52a6.92,6.92,0,0,0-.3-2.08,4.58,4.58,0,0,0-.9-1.64,4.17,4.17,0,0,0-1.47-1.07,5.11,5.11,0,0,0-2-.38,5.26,5.26,0,0,0-2.31.47,4.25,4.25,0,0,0-1.59,1.31,5.75,5.75,0,0,0-.92,1.93,9,9,0,0,0-.3,2.36,8.3,8.3,0,0,0,.32,2.4,5.16,5.16,0,0,0,1,1.88,4.67,4.67,0,0,0,1.76,1.22,6.73,6.73,0,0,0,2.55.44,10.31,10.31,0,0,0,1.91-.16,6,6,0,0,0,1.53-.45,4.37,4.37,0,0,0-.09-.65,2.32,2.32,0,0,0-.18-.61,9.75,9.75,0,0,1-1.43.4,7.81,7.81,0,0,1-1.58.14,4.24,4.24,0,0,1-3.17-1.08,4.63,4.63,0,0,1-1.06-3.37Zm-14.83-8.74h.95c.18,0,.33,0,.45,0s0-.3,0-.5,0-.36,0-.49,0-.27,0-.45,0-.33,0-.45a2.81,2.81,0,0,0-.45,0l-.45,0-.5,0a3.48,3.48,0,0,0-.49,0c0,.12,0,.27,0,.45s0,.33,0,.45,0,.3,0,.49,0,.36,0,.5S140.64,135.8,140.83,135.8Zm.25,14.25a2.77,2.77,0,0,0,.38,0h.74a2.78,2.78,0,0,0,.37,0V138.58h-2.93c0,.08,0,.17,0,.29s0,.24,0,.36,0,.24,0,.34,0,.2,0,.27h1.44Zm-6.14-1.33a6.72,6.72,0,0,1-1.06.2,12.68,12.68,0,0,1-1.41.07,4.38,4.38,0,0,1-3.16-1.06,4.57,4.57,0,0,1-1.12-3.41,7.24,7.24,0,0,1,.26-2,4.39,4.39,0,0,1,.78-1.54,3.46,3.46,0,0,1,1.29-1,4.35,4.35,0,0,1,1.84-.36,7.46,7.46,0,0,1,1.43.14,7.16,7.16,0,0,1,1.15.33Zm0-10a7.52,7.52,0,0,0-1.18-.29,9.11,9.11,0,0,0-1.47-.12,6,6,0,0,0-2.31.43,5,5,0,0,0-1.79,1.22,5.66,5.66,0,0,0-1.14,2,8,8,0,0,0-.41,2.64,7.18,7.18,0,0,0,.46,2.72,4.71,4.71,0,0,0,1.25,1.78,4.84,4.84,0,0,0,1.87,1,9,9,0,0,0,2.32.29,13.59,13.59,0,0,0,2.15-.16,11,11,0,0,0,1.74-.38V133.52a1.83,1.83,0,0,0-.37,0l-.38,0-.36,0a1.87,1.87,0,0,0-.38,0Zm-19.16,4.58a4.62,4.62,0,0,1,1.06-2.72,3.55,3.55,0,0,1,3.91-.65,2.94,2.94,0,0,1,1,.82,3.48,3.48,0,0,1,.56,1.18,5.31,5.31,0,0,1,.18,1.37Zm8.14,1.24c0-.15,0-.33,0-.54s0-.38,0-.52a6.92,6.92,0,0,0-.31-2.08,4.58,4.58,0,0,0-.9-1.64,4.08,4.08,0,0,0-1.47-1.07,5.06,5.06,0,0,0-2-.38,5.33,5.33,0,0,0-2.32.47,4.3,4.3,0,0,0-1.58,1.31,5.77,5.77,0,0,0-.93,1.93,9,9,0,0,0-.3,2.36,8.29,8.29,0,0,0,.33,2.4,4.88,4.88,0,0,0,1,1.88,4.63,4.63,0,0,0,1.75,1.22,6.78,6.78,0,0,0,2.56.44,10.47,10.47,0,0,0,1.91-.16,6.27,6.27,0,0,0,1.53-.45c0-.19,0-.41-.09-.65a3.45,3.45,0,0,0-.18-.61,10.11,10.11,0,0,1-1.43.4A8,8,0,0,1,120,149a4.26,4.26,0,0,1-3.17-1.08,4.68,4.68,0,0,1-1.06-3.37Zm-27.51,5.51.35,0h.85l.36,0,.65-13.79L103,146.7a1,1,0,0,0,.3.05H104a1.12,1.12,0,0,0,.31-.05l4.46-10.41.6,13.76.35,0h.85l.36,0-.79-16.17a2.64,2.64,0,0,0-.45,0l-.52,0-.53,0a2.29,2.29,0,0,0-.44,0l-4.47,10.77-4.52-10.77a2.64,2.64,0,0,0-.45,0l-.54,0-.54,0a2.17,2.17,0,0,0-.43,0Z"/><path class="c" d="M244,41.44c1.05-7.39,3.62-18.6,12.33-20.18,7-1.27,17.14-1.23,23.5,2.41,8.37,4.8,14.4,14,19,22.24s8.79,18.43,7.7,28c-.08.66-14.5-.43-14.56,0,1.26-11.09-4.36-22.63-9.91-31.86-3.72-6.2-9.32-14.25-16.33-18.33C260.09,28.58,258.75,39,258,45.58c-.79,7-1.23,14.11-1.57,21.2A112.6,112.6,0,0,0,243.58,44.7C243.71,43.61,243.82,42.52,244,41.44Z"/></svg>